ffmpeg version 6.1.1-3ubuntu5 Copyright (c) 2000-2023 the FFmpeg developers
  built with gcc 13 (Ubuntu 13.2.0-23ubuntu3)
  configuration: --prefix=/usr --extra-version=3ubuntu5 --toolchain=hardened --libdir=/usr/lib/x86_64-linux-gnu --incdir=/usr/include/x86_64-linux-gnu --arch=amd64 --enable-gpl --disable-stripping --disable-omx --enable-gnutls --enable-libaom --enable-libass --enable-libbs2b --enable-libcaca --enable-libcdio --enable-libcodec2 --enable-libdav1d --enable-libflite --enable-libfontconfig --enable-libfreetype --enable-libfribidi --enable-libglslang --enable-libgme --enable-libgsm --enable-libharfbuzz --enable-libmp3lame --enable-libmysofa --enable-libopenjpeg --enable-libopenmpt --enable-libopus --enable-librubberband --enable-libshine --enable-libsnappy --enable-libsoxr --enable-libspeex --enable-libtheora --enable-libtwolame --enable-libvidstab --enable-libvorbis --enable-libvpx --enable-libwebp --enable-libx265 --enable-libxml2 --enable-libxvid --enable-libzimg --enable-openal --enable-opencl --enable-opengl --disable-sndio --enable-libvpl --disable-libmfx --enable-libdc1394 --enable-libdrm --enable-libiec61883 --enable-chromaprint --enable-frei0r --enable-ladspa --enable-libbluray --enable-libjack --enable-libpulse --enable-librabbitmq --enable-librist --enable-libsrt --enable-libssh --enable-libsvtav1 --enable-libx264 --enable-libzmq --enable-libzvbi --enable-lv2 --enable-sdl2 --enable-libplacebo --enable-librav1e --enable-pocketsphinx --enable-librsvg --enable-libjxl --enable-shared
  libavutil      58. 29.100 / 58. 29.100
  libavcodec     60. 31.102 / 60. 31.102
  libavformat    60. 16.100 / 60. 16.100
  libavdevice    60.  3.100 / 60.  3.100
  libavfilter     9. 12.100 /  9. 12.100
  libswscale      7.  5.100 /  7.  5.100
  libswresample   4. 12.100 /  4. 12.100
  libpostproc    57.  3.100 / 57.  3.100
Input #0, matroska,webm, from 'RickAstley.mkv':
  Metadata:
    MAJOR_BRAND     : dash
    MINOR_VERSION   : 0
    COMPATIBLE_BRANDS: iso6avc1mp41
    ENCODER         : Lavf58.29.100
  Duration: 00:00:17.37, start: -0.007000, bitrate: 2315 kb/s
  Stream #0:0: Video: h264 (High), yuv420p(tv, bt709, progressive), 1920x1080 [SAR 1:1 DAR 16:9], 25 fps, 25 tbr, 1k tbn (default)
    Metadata:
      HANDLER_NAME    : ISO Media file produced by Google Inc.
      DURATION        : 00:00:17.373000000
  Stream #0:1(eng): Audio: opus, 48000 Hz, stereo, fltp (default)
    Metadata:
      DURATION        : 00:00:17.320000000
Output #0, rtp_mpegts, to 'rtp://192.168.3.20:4004?pkt_size=1300':
  Metadata:
    MAJOR_BRAND     : dash
    MINOR_VERSION   : 0
    COMPATIBLE_BRANDS: iso6avc1mp41
    encoder         : Lavf60.16.100
  Stream #0:0: Video: h264 (High), yuv420p(tv, bt709, progressive), 1920x1080 [SAR 1:1 DAR 16:9], q=2-31, 25 fps, 25 tbr, 90k tbn (default)
    Metadata:
      HANDLER_NAME    : ISO Media file produced by Google Inc.
      DURATION        : 00:00:17.373000000
  Stream #0:1(eng): Audio: opus, 48000 Hz, stereo, fltp (default)
    Metadata:
      DURATION        : 00:00:17.320000000
Stream mapping:
  Stream #0:0 -> #0:0 (copy)
  Stream #0:1 -> #0:1 (copy)
Press [q] to stop, [?] for help
size=       0kB time=00:00:00.00 bitrate=N/A speed=N/A    size=      19kB time=00:00:01.02 bitrate= 152.2kbits/s speed=2.04x    size=     199kB time=00:00:01.54 bitrate=1060.2kbits/s speed=1.51x    size=     352kB time=00:00:02.04 bitrate=1412.8kbits/s speed=1.34x    size=     485kB time=00:00:02.54 bitrate=1565.6kbits/s speed=1.26x    size=     597kB time=00:00:03.06 bitrate=1597.6kbits/s speed= 1.2x    size=     714kB time=00:00:03.56 bitrate=1642.2kbits/s speed=1.17x    size=     836kB time=00:00:04.08 bitrate=1678.8kbits/s speed=1.15x    size=     989kB time=00:00:04.58 bitrate=1768.3kbits/s speed=1.13x    size=    1137kB time=00:00:05.08 bitrate=1833.0kbits/s speed=1.11x    size=    1344kB time=00:00:05.60 bitrate=1965.7kbits/s speed= 1.1x    size=    1521kB time=00:00:06.10 bitrate=2042.4kbits/s speed=1.09x    size=    1711kB time=00:00:06.62 bitrate=2117.5kbits/s speed=1.09x    size=    1913kB time=00:00:07.14 bitrate=2194.5kbits/s speed=1.08x    size=    2107kB time=00:00:07.66 bitrate=2253.9kbits/s speed=1.07x    size=    2298kB time=00:00:08.16 bitrate=2306.9kbits/s speed=1.07x    size=    2517kB time=00:00:08.66 bitrate=2381.2kbits/s speed=1.06x    size=    2692kB time=00:00:09.16 bitrate=2407.5kbits/s speed=1.06x    size=    2867kB time=00:00:09.68 bitrate=2426.1kbits/s speed=1.06x    size=    3037kB time=00:00:10.18 bitrate=2444.0kbits/s speed=1.05x    size=    3223kB time=00:00:10.68 bitrate=2472.2kbits/s speed=1.05x    size=    3438kB time=00:00:11.20 bitrate=2514.6kbits/s speed=1.05x    size=    3598kB time=00:00:11.70 bitrate=2519.4kbits/s speed=1.05x    size=    3775kB time=00:00:12.22 bitrate=2530.8kbits/s speed=1.04x    size=    3947kB time=00:00:12.72 bitrate=2541.8kbits/s speed=1.04x    size=    4131kB time=00:00:13.24 bitrate=2556.3kbits/s speed=1.04x    size=    4292kB time=00:00:13.76 bitrate=2555.1kbits/s speed=1.04x    size=    4419kB time=00:00:14.26 bitrate=2538.4kbits/s speed=1.04x    size=    4577kB time=00:00:14.78 bitrate=2536.7kbits/s speed=1.04x    size=    4691kB time=00:00:15.28 bitrate=2515.2kbits/s speed=1.04x    size=    4794kB time=00:00:15.78 bitrate=2488.7kbits/s speed=1.03x    size=    4892kB time=00:00:16.30 bitrate=2458.5kbits/s speed=1.03x    size=    5031kB time=00:00:16.80 bitrate=2453.2kbits/s speed=1.03x    size=    5186kB time=00:00:17.30 bitrate=2455.6kbits/s speed=1.03x    [out#0/rtp_mpegts @ 0x62cf58efdd40] video:4641kB audio:259kB subtitle:0kB other streams:0kB global headers:0kB muxing overhead: 6.026317%
size=    5195kB time=00:00:17.30 bitrate=2459.8kbits/s speed=1.03x    
